<svg width="24" height="24" viewBox="0 0 24 24" fill="none" xmlns="http://www.w3.org/2000/svg">
<circle cx="12" cy="8" r="3" stroke="white" stroke-width="2" stroke-linecap="round"/>
<path d="M15.701 8.25C15.8999 7.90547 16.2275 7.65408 16.6118 7.55111C16.996 7.44815 17.4055 7.50205 17.75 7.70096C18.0945 7.89987 18.3459 8.2275 18.4489 8.61177C18.5519 8.99604 18.498 9.40547 18.299 9.75C18.1001 10.0945 17.7725 10.3459 17.3882 10.4489C17.004 10.5519 16.5945 10.498 16.25 10.299C15.9055 10.1001 15.6541 9.7725 15.5511 9.38823C15.4481 9.00396 15.502 8.59453 15.701 8.25L15.701 8.25Z" stroke="white" stroke-width="3"/>
<path d="M5.70096 8.25C5.89987 7.90547 6.2275 7.65408 6.61177 7.55111C6.99604 7.44815 7.40547 7.50205 7.75 7.70096C8.09453 7.89987 8.34592 8.2275 8.44889 8.61177C8.55185 8.99604 8.49795 9.40547 8.29904 9.75C8.10013 10.0945 7.7725 10.3459 7.38823 10.4489C7.00396 10.5519 6.59453 10.498 6.25 10.299C5.90547 10.1001 5.65408 9.7725 5.55111 9.38823C5.44815 9.00396 5.50205 8.59453 5.70096 8.25L5.70096 8.25Z" stroke="white" stroke-width="3"/>
<path fill-rule="evenodd" clip-rule="evenodd" d="M16.8816 18H19.8672C20.4687 18 20.9213 17.471 20.7202 16.9042C20.3002 15.7199 19.2951 14 17 14C16.0601 14 15.3365 14.2885 14.7808 14.7105C16.1646 15.5712 16.6855 17.0264 16.8816 18Z" fill="white"/>
<path d="M16.8816 18L15.9013 18.1974L16.0629 19H16.8816V18ZM20.7202 16.9042L21.6627 16.5699L21.6627 16.5699L20.7202 16.9042ZM14.7808 14.7105L14.176 13.9142L13.0194 14.7927L14.2527 15.5597L14.7808 14.7105ZM19.8672 17H16.8816V19H19.8672V17ZM19.7777 17.2384C19.7707 17.2186 19.7642 17.181 19.7725 17.1354C19.7804 17.0921 19.7982 17.0593 19.8151 17.0383C19.8474 16.9982 19.874 17 19.8672 17V19C21.0132 19 22.1414 17.9194 21.6627 16.5699L19.7777 17.2384ZM17 15C18.6416 15 19.4027 16.1811 19.7777 17.2384L21.6627 16.5699C21.1976 15.2588 19.9485 13 17 13V15ZM15.3857 15.5069C15.7702 15.2148 16.282 15 17 15V13C15.8381 13 14.9028 13.3622 14.176 13.9142L15.3857 15.5069ZM14.2527 15.5597C15.2918 16.206 15.7271 17.3324 15.9013 18.1974L17.8619 17.8026C17.644 16.7204 17.0374 14.9364 15.309 13.8614L14.2527 15.5597Z" fill="white"/>
<path fill-rule="evenodd" clip-rule="evenodd" d="M9.21918 14.7105C8.66355 14.2885 7.93997 14 7.00001 14C4.70496 14 3.69985 15.7199 3.2798 16.9041C3.07872 17.471 3.53128 18 4.13278 18H7.11835C7.31444 17.0264 7.83536 15.5712 9.21918 14.7105Z" fill="white"/>
<path d="M9.21918 14.7105L9.7473 15.5597L10.9806 14.7927L9.82403 13.9142L9.21918 14.7105ZM3.2798 16.9041L4.22227 17.2384L4.22227 17.2384L3.2798 16.9041ZM7.11835 18V19H7.93703L8.09867 18.1974L7.11835 18ZM7.00001 15C7.71803 15 8.22986 15.2148 8.61433 15.5069L9.82403 13.9142C9.09723 13.3621 8.1619 13 7.00001 13V15ZM4.22227 17.2384C4.59732 16.1811 5.35842 15 7.00001 15V13C4.0515 13 2.80238 15.2587 2.33733 16.5699L4.22227 17.2384ZM4.13278 17C4.126 17 4.15264 16.9982 4.18486 17.0383C4.20176 17.0593 4.21961 17.0921 4.22748 17.1354C4.2358 17.181 4.22931 17.2186 4.22227 17.2384L2.33733 16.5699C1.85864 17.9194 2.98677 19 4.13278 19V17ZM7.11835 17H4.13278V19H7.11835V17ZM8.09867 18.1974C8.27289 17.3324 8.70814 16.206 9.7473 15.5597L8.69106 13.8614C6.96257 14.9363 6.356 16.7203 6.13804 17.8026L8.09867 18.1974Z" fill="white"/>
<path d="M12 14C15.5715 14 16.5919 16.5512 16.8834 18.0089C16.9917 18.5504 16.5523 19 16 19H8C7.44772 19 7.00829 18.5504 7.11659 18.0089C7.4081 16.5512 8.42846 14 12 14Z" stroke="white" stroke-width="2" stroke-linecap="round"/>
</svg>
