<svg width="12" height="12" viewBox="0 0 12 12" fill="none" xmlns="http://www.w3.org/2000/svg">
<path d="M6 11L1.67658 5.59572C1.34716 5.18395 1.18245 4.97806 1.13707 4.7302C1.13652 4.7272 1.13598 4.7242 1.13546 4.72119C1.09236 4.47293 1.17573 4.2228 1.34249 3.72252V3.72252C1.77838 2.41487 1.99632 1.76104 2.51281 1.38425C2.51899 1.37974 2.52519 1.37527 2.53143 1.37083C3.0522 1 3.7414 1 5.11979 1H6.88021C8.2586 1 8.9478 1 9.46857 1.37083C9.47481 1.37527 9.48101 1.37974 9.48719 1.38425C10.0037 1.76104 10.2216 2.41487 10.6575 3.72252V3.72252C10.8243 4.2228 10.9076 4.47293 10.8645 4.72119C10.864 4.7242 10.8635 4.7272 10.8629 4.7302C10.8176 4.97806 10.6528 5.18395 10.3234 5.59572L6 11ZM6 11L8.1875 4.125M6 11L3.8125 4.125M10.6875 4.75L8.1875 4.125M8.1875 4.125L7.25 1.625M8.1875 4.125H3.8125M4.75 1.625L3.8125 4.125M3.8125 4.125L1.3125 4.75" stroke="#E5E6F0" stroke-linecap="round"/>
</svg>
