<svg width="18" height="18" viewBox="0 0 18 18" fill="none" xmlns="http://www.w3.org/2000/svg">
<path d="M7.37727 9.91586C7.18201 10.1111 7.18201 10.4277 7.37727 10.623C7.57253 10.8182 7.88911 10.8182 8.08438 10.623L7.37727 9.91586ZM11.719 6.98835C11.9143 6.79309 11.9143 6.4765 11.719 6.28124C11.5237 6.08598 11.2071 6.08598 11.0119 6.28124L11.719 6.98835ZM15.0835 4.41665L15.5614 4.5637L15.0835 4.41665ZM12.0155 14.3876L12.4934 14.5346L12.0155 14.3876ZM9.79525 14.5713L9.34804 14.7949L9.79525 14.5713ZM7.85204 10.6849L7.40482 10.9085L7.85204 10.6849ZM7.31537 10.1482L7.09177 10.5954L7.31537 10.1482ZM3.42894 8.20502L3.65255 7.7578L3.42894 8.20502ZM3.61278 5.98482L3.46574 5.50693H3.46574L3.61278 5.98482ZM13.5837 2.91684L13.7308 3.39473L13.5837 2.91684ZM2.067 7.31943L2.52883 7.1278L2.067 7.31943ZM2.12377 6.63449L1.69973 6.36955L2.12377 6.63449ZM7.70812 10.4283L7.31211 10.7335L7.70812 10.4283ZM7.57217 10.2921L7.26692 10.6881L7.57217 10.2921ZM11.3658 15.8765L11.1009 15.4525L11.3658 15.8765ZM10.6812 15.9332L10.8728 15.4714L10.6812 15.9332ZM15.3208 3.12521L15.7902 2.9529L15.3208 3.12521ZM14.8751 2.67963L14.7027 3.149L14.8751 2.67963ZM8.08438 10.623L11.719 6.98835L11.0119 6.28124L7.37727 9.91586L8.08438 10.623ZM14.6056 4.26961L11.5376 14.2406L12.4934 14.5346L15.5614 4.5637L14.6056 4.26961ZM10.2425 14.3477L8.29925 10.4613L7.40482 10.9085L9.34804 14.7949L10.2425 14.3477ZM7.53898 9.70102L3.65255 7.7578L3.20534 8.65223L7.09177 10.5954L7.53898 9.70102ZM3.75982 6.46271L13.7308 3.39473L13.4367 2.43895L3.46574 5.50693L3.75982 6.46271ZM3.65255 7.7578C3.22547 7.54426 2.93566 7.39886 2.73638 7.27632C2.52144 7.14416 2.51646 7.098 2.52883 7.1278L1.60518 7.51105C1.72473 7.79916 1.98248 7.98668 2.21259 8.12817C2.45837 8.27929 2.79593 8.44753 3.20534 8.65223L3.65255 7.7578ZM3.46574 5.50693C3.02824 5.64154 2.66761 5.752 2.40033 5.86067C2.15007 5.96242 1.86501 6.10502 1.69973 6.36955L2.5478 6.89944C2.53071 6.92679 2.54323 6.88207 2.77697 6.78703C2.99368 6.69892 3.30346 6.60313 3.75982 6.46271L3.46574 5.50693ZM2.52883 7.1278C2.49789 7.05324 2.5049 6.9681 2.5478 6.89944L1.69973 6.36955C1.4856 6.71227 1.45021 7.13757 1.60518 7.51105L2.52883 7.1278ZM8.29925 10.4613C8.2413 10.3454 8.1848 10.2277 8.10412 10.123L7.31211 10.7335C7.3201 10.7439 7.33003 10.7589 7.40482 10.9085L8.29925 10.4613ZM7.09177 10.5954C7.24196 10.6705 7.25669 10.6802 7.26692 10.6881L7.87742 9.89611C7.77262 9.81533 7.65427 9.75866 7.53898 9.70102L7.09177 10.5954ZM8.10412 10.123C8.03906 10.0386 7.96313 9.96217 7.87742 9.89611L7.26692 10.6881C7.28329 10.7007 7.2985 10.7159 7.31211 10.7335L8.10412 10.123ZM11.5376 14.2406C11.3972 14.6969 11.3014 15.0067 11.2133 15.2234C11.1183 15.4571 11.0735 15.4696 11.1009 15.4525L11.6308 16.3006C11.8953 16.1353 12.0379 15.8503 12.1396 15.6C12.2483 15.3327 12.3588 14.9721 12.4934 14.5346L11.5376 14.2406ZM9.34804 14.7949C9.55278 15.2044 9.7211 15.542 9.87235 15.7878C10.014 16.018 10.2016 16.2755 10.4896 16.395L10.8728 15.4714C10.9025 15.4837 10.8562 15.4786 10.724 15.2637C10.6015 15.0645 10.456 14.7747 10.2425 14.3477L9.34804 14.7949ZM11.1009 15.4525C11.0323 15.4954 10.9475 15.5024 10.8728 15.4714L10.4896 16.395C10.863 16.55 11.288 16.5148 11.6308 16.3006L11.1009 15.4525ZM15.5614 4.5637C15.6665 4.22188 15.7562 3.93242 15.8052 3.69935C15.8531 3.47163 15.884 3.20841 15.7902 2.9529L14.8514 3.29752C14.8448 3.27937 14.8651 3.31051 14.8266 3.4935C14.7892 3.67113 14.7166 3.90871 14.6056 4.26961L15.5614 4.5637ZM13.7308 3.39473C14.0916 3.28369 14.3292 3.21111 14.5068 3.17378C14.6897 3.13532 14.7208 3.15564 14.7027 3.149L15.0474 2.21026C14.7919 2.11648 14.5288 2.14729 14.301 2.19517C14.068 2.24417 13.7785 2.33377 13.4367 2.43895L13.7308 3.39473ZM15.7902 2.9529C15.6636 2.60813 15.3918 2.33669 15.0474 2.21026L14.7027 3.149C14.7718 3.17437 14.8262 3.2288 14.8514 3.29752L15.7902 2.9529Z" fill="white"/>
</svg>
