<svg width="18" height="18" viewBox="0 0 18 18" fill="none" xmlns="http://www.w3.org/2000/svg">
<path d="M9 6.14598L8.54001 6.34195C8.61855 6.52632 8.7996 6.64598 9 6.64598C9.2004 6.64598 9.38145 6.52632 9.45999 6.34195L9 6.14598ZM9 15.7502L8.75718 16.1872C8.90819 16.2711 9.09181 16.2711 9.24282 16.1872L9 15.7502ZM2.75 7.50017C2.75 6.47519 3.04724 5.72702 3.47637 5.21689C3.90694 4.70504 4.49568 4.4021 5.13381 4.31015C6.4148 4.12556 7.88097 4.79506 8.54001 6.34195L9.45999 5.95001C8.61903 3.97607 6.7102 3.07266 4.99119 3.32037C4.12932 3.44457 3.31181 3.85908 2.71112 4.57315C2.10901 5.28893 1.75 6.27515 1.75 7.50017H2.75ZM9.45999 6.34195C10.119 4.79506 11.5852 4.12556 12.8662 4.31015C13.5043 4.4021 14.0931 4.70504 14.5236 5.21689C14.9528 5.72702 15.25 6.47519 15.25 7.50017H16.25C16.25 6.27515 15.891 5.28893 15.2889 4.57315C14.6882 3.85908 13.8707 3.44457 13.0088 3.32037C11.2898 3.07266 9.38097 3.97607 8.54001 5.95001L9.45999 6.34195ZM15.25 7.50017C15.25 9.51679 13.7183 11.4496 12.0428 12.939C11.2211 13.6694 10.3971 14.2647 9.77734 14.6779C9.46797 14.8841 9.21074 15.0442 9.03179 15.1521C8.94235 15.206 8.87255 15.2469 8.82567 15.274C8.80223 15.2876 8.78453 15.2976 8.77298 15.3042C8.7672 15.3075 8.76296 15.3098 8.76031 15.3113C8.75899 15.3121 8.75806 15.3126 8.75753 15.3129C8.75727 15.313 8.75711 15.3131 8.75705 15.3131C8.75702 15.3132 8.75705 15.3131 8.75704 15.3132C8.7571 15.3131 8.75718 15.3131 9 15.7502C9.24282 16.1872 9.24295 16.1872 9.24311 16.1871C9.2432 16.187 9.24339 16.1869 9.24356 16.1868C9.24392 16.1866 9.24437 16.1864 9.24492 16.1861C9.24604 16.1854 9.24755 16.1846 9.24947 16.1835C9.25331 16.1814 9.25875 16.1783 9.26575 16.1743C9.27974 16.1664 9.29994 16.1549 9.32594 16.1399C9.37794 16.1098 9.45316 16.0658 9.54828 16.0084C9.73848 15.8937 10.0086 15.7256 10.332 15.5099C10.9779 15.0793 11.8414 14.456 12.7072 13.6864C14.4067 12.1757 16.25 9.98359 16.25 7.50017H15.25ZM9 15.7502C9.24282 15.3131 9.2429 15.3131 9.24296 15.3132C9.24295 15.3131 9.24298 15.3132 9.24295 15.3131C9.24289 15.3131 9.24273 15.313 9.24247 15.3129C9.24194 15.3126 9.24101 15.3121 9.23969 15.3113C9.23704 15.3098 9.2328 15.3075 9.22702 15.3042C9.21547 15.2976 9.19777 15.2876 9.17433 15.274C9.12745 15.2469 9.05765 15.206 8.96821 15.1521C8.78926 15.0442 8.53203 14.8841 8.22266 14.6779C7.60295 14.2647 6.7789 13.6694 5.95718 12.939C4.28168 11.4496 2.75 9.51679 2.75 7.50017H1.75C1.75 9.98359 3.59332 12.1757 5.29282 13.6864C6.1586 14.456 7.02205 15.0793 7.66796 15.5099C7.99141 15.7256 8.26152 15.8937 8.45172 16.0084C8.54684 16.0658 8.62206 16.1098 8.67406 16.1399C8.70006 16.1549 8.72026 16.1664 8.73425 16.1743C8.74125 16.1783 8.74669 16.1814 8.75053 16.1835C8.75245 16.1846 8.75396 16.1854 8.75508 16.1861C8.75563 16.1864 8.75608 16.1866 8.75644 16.1868C8.75661 16.1869 8.7568 16.187 8.75689 16.1871C8.75705 16.1872 8.75718 16.1872 9 15.7502Z" fill="white"/>
</svg>
