<svg width="24" height="24" viewBox="0 0 24 24" fill="none" xmlns="http://www.w3.org/2000/svg">
<path fill-rule="evenodd" clip-rule="evenodd" d="M6.4093 5.58579C5.82352 6.17157 5.82352 7.11438 5.82352 9V16C5.82352 17.8856 5.82352 18.8284 6.4093 19.4142C6.99509 20 7.9379 20 9.82352 20H14.1765C16.0621 20 17.0049 20 17.5907 19.4142C18.1765 18.8284 18.1765 17.8856 18.1765 16V9C18.1765 7.11438 18.1765 6.17157 17.5907 5.58579C17.0049 5 16.0621 5 14.1765 5H9.82352C7.9379 5 6.99509 5 6.4093 5.58579ZM9.35293 8.41176C8.80064 8.41176 8.35293 8.85948 8.35293 9.41176C8.35293 9.96405 8.80064 10.4118 9.35293 10.4118H14.647C15.1993 10.4118 15.647 9.96405 15.647 9.41176C15.647 8.85948 15.1993 8.41176 14.647 8.41176H9.35293ZM9.35293 11.9412C8.80064 11.9412 8.35293 12.3889 8.35293 12.9412C8.35293 13.4935 8.80064 13.9412 9.35293 13.9412H14.647C15.1993 13.9412 15.647 13.4935 15.647 12.9412C15.647 12.3889 15.1993 11.9412 14.647 11.9412H9.35293ZM9.35293 15.4706C8.80064 15.4706 8.35293 15.9183 8.35293 16.4706C8.35293 17.0229 8.80064 17.4706 9.35293 17.4706H12.8823C13.4346 17.4706 13.8823 17.0229 13.8823 16.4706C13.8823 15.9183 13.4346 15.4706 12.8823 15.4706H9.35293Z" fill="white"/>
</svg>
