<svg width="18" height="18" viewBox="0 0 18 18" fill="none" xmlns="http://www.w3.org/2000/svg">
<path d="M1.96167 7.10509L1.90281 6.60857H1.9028L1.96167 7.10509ZM1.75122 7.7528L2.0907 7.38571L2.0907 7.38571L1.75122 7.7528ZM5.08025 10.8314L4.74077 11.1985L4.74078 11.1985L5.08025 10.8314ZM5.19328 11.1798L5.68369 11.2772L5.68369 11.2772L5.19328 11.1798ZM4.30957 15.6272L3.81916 15.5298L3.81916 15.5298L4.30957 15.6272ZM4.86082 16.0275L4.6166 15.5912L4.61659 15.5912L4.86082 16.0275ZM8.81773 13.8127L9.06194 14.249L9.06195 14.249L8.81773 13.8127ZM9.18396 13.8128L8.93974 14.2491L8.93974 14.2491L9.18396 13.8128ZM13.1405 16.0275L13.3847 15.5912H13.3847L13.1405 16.0275ZM13.6914 15.6272L13.2009 15.7246L13.2009 15.7246L13.6914 15.6272ZM12.8079 11.1798L13.2983 11.0824L13.2983 11.0824L12.8079 11.1798ZM12.9209 10.8314L13.2604 11.1985L13.2604 11.1985L12.9209 10.8314ZM16.2497 7.75283L15.9102 7.38574L15.9102 7.38575L16.2497 7.75283ZM16.0393 7.10509L16.0982 6.60857L16.0982 6.60857L16.0393 7.10509ZM11.5364 6.57125L11.4775 7.06777L11.4775 7.06777L11.5364 6.57125ZM11.2405 6.35592L10.7864 6.56533L10.7865 6.56534L11.2405 6.35592ZM9.34131 2.23842L9.79534 2.029L9.79534 2.029L9.34131 2.23842ZM8.66016 2.23846L8.20613 2.02904V2.02904L8.66016 2.23846ZM6.76099 6.35586L7.21501 6.56528L6.76099 6.35586ZM6.46436 6.57124L6.52322 7.06776H6.52323L6.46436 6.57124ZM1.9028 6.60857C1.16133 6.69648 0.863558 7.61295 1.41174 8.11989L2.0907 7.38571C2.16901 7.45813 2.12647 7.58905 2.02054 7.60161L1.9028 6.60857ZM1.41174 8.11989L4.74077 11.1985L5.41973 10.4643L2.0907 7.38571L1.41174 8.11989ZM4.74078 11.1985C4.70852 11.1687 4.69449 11.1245 4.70287 11.0823L5.68369 11.2772C5.74291 10.9792 5.64348 10.6713 5.41973 10.4643L4.74078 11.1985ZM4.70287 11.0823L3.81916 15.5298L4.79998 15.7247L5.68369 11.2772L4.70287 11.0823ZM3.81916 15.5298C3.67354 16.2626 4.45397 16.8282 5.10504 16.4638L4.61659 15.5912C4.7092 15.5394 4.82088 15.6195 4.79998 15.7247L3.81916 15.5298ZM5.10503 16.4638L9.06194 14.249L8.57352 13.3764L4.6166 15.5912L5.10503 16.4638ZM9.06195 14.249C9.02381 14.2703 8.97747 14.2702 8.93974 14.2491L9.42818 13.3765C9.16284 13.228 8.83925 13.2277 8.57351 13.3764L9.06195 14.249ZM8.93974 14.2491L12.8963 16.4638L13.3847 15.5912L9.42818 13.3765L8.93974 14.2491ZM12.8963 16.4638C13.5479 16.8285 14.3273 16.262 14.1818 15.5297L13.2009 15.7246C13.1802 15.6201 13.2915 15.539 13.3847 15.5912L12.8963 16.4638ZM14.1818 15.5298L13.2983 11.0824L12.3174 11.2773L13.2009 15.7246L14.1818 15.5298ZM13.2983 11.0824C13.3067 11.1246 13.2926 11.1687 13.2604 11.1985L12.5815 10.4643C12.3577 10.6712 12.2582 10.9792 12.3174 11.2773L13.2983 11.0824ZM13.2604 11.1985L16.5892 8.11991L15.9102 7.38575L12.5814 10.4643L13.2604 11.1985ZM16.5892 8.11992C17.1372 7.61313 16.8399 6.69651 16.0982 6.60857L15.9804 7.60161C15.8743 7.58903 15.8321 7.458 15.9102 7.38574L16.5892 8.11992ZM16.0982 6.60857L11.5952 6.07472L11.4775 7.06777L15.9804 7.60161L16.0982 6.60857ZM11.5952 6.07472C11.6393 6.07994 11.6767 6.10779 11.6945 6.14649L10.7865 6.56534C10.9136 6.84089 11.1745 7.03184 11.4775 7.06777L11.5952 6.07472ZM11.6945 6.1465L9.79534 2.029L8.88728 2.44784L10.7864 6.56533L11.6945 6.1465ZM9.79534 2.029C9.48255 1.35089 8.51882 1.35112 8.20613 2.02904L9.11418 2.44788C9.06955 2.54464 8.932 2.5448 8.88728 2.44784L9.79534 2.029ZM8.20613 2.02904L6.30696 6.14643L7.21501 6.56528L9.11418 2.44788L8.20613 2.02904ZM6.30696 6.14643C6.3253 6.10666 6.36264 6.0798 6.40548 6.07472L6.52323 7.06776C6.8251 7.03197 7.08742 6.8419 7.21501 6.56528L6.30696 6.14643ZM6.40549 6.07472L1.90281 6.60857L2.02054 7.60161L6.52322 7.06776L6.40549 6.07472Z" fill="white"/>
</svg>
