<svg width="17" height="17" viewBox="0 0 17 17" fill="none" xmlns="http://www.w3.org/2000/svg">
<path d="M6.8264 8.93633C6.53351 9.22923 6.53351 9.7041 6.8264 9.99699C7.11929 10.2899 7.59417 10.2899 7.88706 9.99699L6.8264 8.93633ZM11.9255 5.95853C12.2184 5.66564 12.2184 5.19076 11.9255 4.89787C11.6326 4.60498 11.1578 4.60498 10.8649 4.89787L11.9255 5.95853ZM15.5263 2.9636L16.2432 3.18416L15.5263 2.9636ZM12.1175 14.0424L12.8343 14.263L12.1175 14.0424ZM9.65054 14.2466L8.97972 14.582L9.65054 14.2466ZM7.49141 9.92832L6.82059 10.2637L7.49141 9.92832ZM6.89512 9.33202L6.55971 10.0028L6.89512 9.33202ZM2.57686 7.17289L2.91227 6.50207L2.57686 7.17289ZM2.78113 4.70601L2.56056 3.98917L2.78113 4.70601ZM13.8599 1.29714L14.0805 2.01397L13.8599 1.29714ZM1.0636 6.1889L1.75633 5.90146L1.0636 6.1889ZM1.12667 5.42787L0.490615 5.03045L1.12667 5.42787ZM7.3315 9.64319L6.73749 10.1011L7.3315 9.64319ZM7.18045 9.49189L6.72257 10.0859L7.18045 9.49189ZM11.3956 15.6968L10.9982 15.0608L11.3956 15.6968ZM10.6349 15.7598L10.9224 15.0671L10.6349 15.7598ZM15.79 1.52866L16.4941 1.27019L15.79 1.52866ZM15.2948 1.03357L15.0363 1.73763L15.2948 1.03357ZM7.88706 9.99699L11.9255 5.95853L10.8649 4.89787L6.8264 8.93633L7.88706 9.99699ZM14.8095 2.74304L11.4006 13.8219L12.8343 14.263L16.2432 3.18416L14.8095 2.74304ZM10.3214 13.9112L8.16223 9.59291L6.82059 10.2637L8.97972 14.582L10.3214 13.9112ZM7.23053 8.6612L2.91227 6.50207L2.24145 7.84371L6.55971 10.0028L7.23053 8.6612ZM3.00169 5.42284L14.0805 2.01397L13.6394 0.580303L2.56056 3.98917L3.00169 5.42284ZM2.91227 6.50207C2.43431 6.26309 2.12158 6.10596 1.9092 5.97537C1.67333 5.83034 1.71694 5.80653 1.75633 5.90146L0.370866 6.47634C0.529346 6.85828 0.864882 7.09411 1.12352 7.25315C1.40564 7.42662 1.79 7.61798 2.24145 7.84371L2.91227 6.50207ZM2.56056 3.98917C2.07813 4.13761 1.66754 4.26319 1.36072 4.38794C1.07945 4.5023 0.709722 4.67978 0.490615 5.03045L1.76272 5.82528C1.70827 5.91243 1.66918 5.88177 1.92569 5.77748C2.15664 5.68358 2.49095 5.57999 3.00169 5.42284L2.56056 3.98917ZM1.75633 5.90146C1.74607 5.87674 1.74835 5.84829 1.76272 5.82528L0.490615 5.03045C0.219396 5.46454 0.174561 6.00324 0.370866 6.47634L1.75633 5.90146ZM8.16223 9.59291C8.10112 9.47069 8.02929 9.31994 7.92551 9.18531L6.73749 10.1011C6.73054 10.092 6.73125 10.0906 6.74468 10.1151C6.76088 10.1446 6.78136 10.1853 6.82059 10.2637L8.16223 9.59291ZM6.55971 10.0028C6.63845 10.0422 6.67914 10.0627 6.7089 10.079C6.73359 10.0925 6.73191 10.0931 6.72257 10.0859L7.63833 8.89788C7.5035 8.79395 7.35184 8.72186 7.23053 8.6612L6.55971 10.0028ZM7.92551 9.18531C7.84321 9.07854 7.74704 8.98168 7.63833 8.89788L6.72257 10.0859C6.72728 10.0895 6.73237 10.0944 6.73749 10.1011L7.92551 9.18531ZM11.4006 13.8219C11.2435 14.3326 11.1399 14.6669 11.046 14.8978C10.9417 15.1543 10.9111 15.1152 10.9982 15.0608L11.793 16.3329C12.1437 16.1138 12.3212 15.7441 12.4355 15.4628C12.5603 15.156 12.6859 14.7454 12.8343 14.263L11.4006 13.8219ZM8.97972 14.582C9.20551 15.0336 9.39697 15.4179 9.5706 15.7001C9.72979 15.9588 9.96571 16.2941 10.3475 16.4525L10.9224 15.0671C11.0171 15.1064 10.9932 15.1498 10.8481 14.914C10.7175 14.7017 10.5603 14.389 10.3214 13.9112L8.97972 14.582ZM10.9982 15.0608C10.9753 15.0751 10.9472 15.0774 10.9224 15.0671L10.3475 16.4525C10.8204 16.6488 11.3588 16.6042 11.793 16.3329L10.9982 15.0608ZM16.2432 3.18416C16.3589 2.80808 16.4618 2.47637 16.5185 2.20662C16.5736 1.94491 16.6179 1.60731 16.4941 1.27019L15.086 1.78713C15.059 1.71375 15.0916 1.70322 15.0507 1.89784C15.0114 2.08444 14.934 2.33832 14.8095 2.74304L16.2432 3.18416ZM14.0805 2.01397C14.4852 1.88945 14.739 1.81212 14.9256 1.77291C15.1201 1.73202 15.1096 1.76453 15.0363 1.73763L15.5532 0.329516C15.2162 0.205789 14.8787 0.249964 14.6169 0.304999C14.3472 0.361711 14.0155 0.464573 13.6394 0.580303L14.0805 2.01397ZM16.4941 1.27019C16.3338 0.833443 15.9894 0.489646 15.5532 0.329516L15.0363 1.73763C15.0595 1.74616 15.0777 1.76444 15.086 1.78713L16.4941 1.27019Z" fill="#E5E6F0"/>
</svg>
