<svg width="86" height="86" viewBox="0 0 86 86" fill="none" xmlns="http://www.w3.org/2000/svg">
<g filter="url(#filter0_bd_74_662)">
<rect x="15" y="11" width="56" height="56" rx="28" fill="#848484" fill-opacity="0.3" shape-rendering="crispEdges"/>
<rect x="16" y="12" width="54" height="54" rx="27" stroke="url(#paint0_linear_74_662)" stroke-opacity="0.7" stroke-width="2" shape-rendering="crispEdges"/>
</g>
<path opacity="0.6" d="M40.6005 39.9851C40.21 40.3756 40.21 41.0088 40.6005 41.3993C40.991 41.7899 41.6242 41.7899 42.0147 41.3993L40.6005 39.9851ZM46.8609 36.5532C47.2514 36.1626 47.2514 35.5295 46.8609 35.139C46.4703 34.7484 45.8372 34.7484 45.4467 35.139L46.8609 36.5532ZM51.1111 32.8885L52.0669 33.1826L51.1111 32.8885ZM47.0205 46.1831L47.9763 46.4772L47.0205 46.1831ZM44.0602 46.4281L43.1658 46.8753L44.0602 46.4281ZM41.4692 41.2462L40.5748 41.6934L41.4692 41.2462ZM40.7537 40.5306L40.3065 41.4251L40.7537 40.5306ZM35.5718 37.9397L36.019 37.0453L35.5718 37.9397ZM35.8169 34.9794L35.5228 34.0237L35.8169 34.9794ZM49.1115 30.8888L49.4056 31.8446L49.1115 30.8888ZM33.7559 36.7589L34.6795 36.3757L33.7559 36.7589ZM33.8315 35.8457L32.9835 35.3158L33.8315 35.8457ZM41.2773 40.904L40.4853 41.5146H40.4853L41.2773 40.904ZM41.0961 40.7225L40.4856 41.5145L41.0961 40.7225ZM46.1543 48.1684L45.6244 47.3203L46.1543 48.1684ZM45.2414 48.244L45.6247 47.3203L45.2414 48.244ZM51.4276 31.1666L52.3663 30.822L51.4276 31.1666ZM50.8332 30.5725L50.4886 31.5113L50.8332 30.5725ZM42.0147 41.3993L46.8609 36.5532L45.4467 35.139L40.6005 39.9851L42.0147 41.3993ZM50.1554 32.5945L46.0647 45.889L47.9763 46.4772L52.0669 33.1826L50.1554 32.5945ZM44.9546 45.9809L42.3637 40.799L40.5748 41.6934L43.1658 46.8753L44.9546 45.9809ZM41.2009 39.6362L36.019 37.0453L35.1246 38.8341L40.3065 41.4251L41.2009 39.6362ZM36.111 35.9352L49.4056 31.8446L48.8174 29.933L35.5228 34.0237L36.111 35.9352ZM36.019 37.0453C35.4437 36.7576 35.0732 36.5713 34.823 36.4175C34.5414 36.2444 34.619 36.23 34.6795 36.3757L32.8322 37.1422C33.0356 37.6323 33.4635 37.9294 33.7754 38.1212C34.1186 38.3322 34.5846 38.5641 35.1246 38.8341L36.019 37.0453ZM35.5228 34.0237C34.9458 34.2012 34.448 34.3534 34.0747 34.5051C33.7356 34.643 33.2646 34.8658 32.9835 35.3158L34.6796 36.3756C34.596 36.5093 34.5219 36.4823 34.828 36.3578C35.1001 36.2472 35.4962 36.1244 36.111 35.9352L35.5228 34.0237ZM34.6795 36.3757L34.6796 36.3756L32.9835 35.3158C32.6409 35.8641 32.5842 36.5446 32.8322 37.1422L34.6795 36.3757ZM42.3637 40.799C42.292 40.6557 42.2012 40.4645 42.0694 40.2935L40.4853 41.5146C40.4728 41.4983 40.4708 41.4917 40.4855 41.5184C40.5038 41.5518 40.5274 41.5986 40.5748 41.6934L42.3637 40.799ZM40.3065 41.4251C40.4016 41.4727 40.4485 41.4962 40.4822 41.5147C40.5091 41.5294 40.5023 41.5274 40.4856 41.5145L41.7066 39.9305C41.5353 39.7985 41.343 39.7073 41.2009 39.6362L40.3065 41.4251ZM42.0694 40.2935C41.9654 40.1587 41.844 40.0364 41.7066 39.9305L40.4856 41.5145L40.4853 41.5146L42.0694 40.2935ZM46.0647 45.889C45.8756 46.5038 45.7527 46.8999 45.6421 47.1719C45.5177 47.4781 45.4907 47.4039 45.6244 47.3203L46.6842 49.0165C47.1342 48.7353 47.3569 48.2644 47.4948 47.9252C47.6466 47.552 47.7987 47.0543 47.9763 46.4772L46.0647 45.889ZM43.1658 46.8753C43.4358 47.4155 43.6679 47.8815 43.8791 48.2247C44.0711 48.5367 44.3683 48.9643 44.8582 49.1676L45.6247 47.3203C45.7702 47.3807 45.7556 47.458 45.5825 47.1766C45.4286 46.9266 45.2422 46.5561 44.9546 45.9809L43.1658 46.8753ZM45.6244 47.3203L45.6247 47.3203L44.8582 49.1676C45.4556 49.4155 46.1357 49.3592 46.6842 49.0165L45.6244 47.3203ZM52.0669 33.1826C52.2052 32.7332 52.3304 32.33 52.3996 32.0008C52.4666 31.6822 52.5249 31.2539 52.3663 30.822L50.4888 31.5112C50.4465 31.3958 50.4906 31.36 50.4425 31.5891C50.3965 31.8074 50.3054 32.1069 50.1554 32.5945L52.0669 33.1826ZM49.4056 31.8446C49.8931 31.6946 50.1925 31.6035 50.4108 31.5576C50.6397 31.5094 50.6039 31.5536 50.4886 31.5113L51.1779 29.6338C50.7461 29.4753 50.3179 29.5334 49.9993 29.6004C49.67 29.6696 49.2668 29.7947 48.8174 29.933L49.4056 31.8446ZM52.3663 30.822C52.1638 30.2703 51.7288 29.836 51.1779 29.6338L50.4886 31.5113L50.4888 31.5112L52.3663 30.822Z" fill="url(#paint1_linear_74_662)"/>
<defs>
<filter id="filter0_bd_74_662" x="0" y="0" width="86" height="86" filterUnits="userSpaceOnUse" color-interpolation-filters="sRGB">
<feFlood flood-opacity="0" result="BackgroundImageFix"/>
<feGaussianBlur in="BackgroundImageFix" stdDeviation="4"/>
<feComposite in2="SourceAlpha" operator="in" result="effect1_backgroundBlur_74_662"/>
<feColorMatrix in="SourceAlpha" type="matrix" values="0 0 0 0 0 0 0 0 0 0 0 0 0 0 0 0 0 0 127 0" result="hardAlpha"/>
<feMorphology radius="3" operator="dilate" in="SourceAlpha" result="effect2_dropShadow_74_662"/>
<feOffset dy="4"/>
<feGaussianBlur stdDeviation="6"/>
<feComposite in2="hardAlpha" operator="out"/>
<feColorMatrix type="matrix" values="0 0 0 0 0 0 0 0 0 0 0 0 0 0 0 0 0 0 0.1 0"/>
<feBlend mode="normal" in2="effect1_backgroundBlur_74_662" result="effect2_dropShadow_74_662"/>
<feBlend mode="normal" in="SourceGraphic" in2="effect2_dropShadow_74_662" result="shape"/>
</filter>
<linearGradient id="paint0_linear_74_662" x1="43" y1="11" x2="43" y2="67" gradientUnits="userSpaceOnUse">
<stop stop-color="white"/>
<stop offset="1" stop-color="white" stop-opacity="0"/>
</linearGradient>
<linearGradient id="paint1_linear_74_662" x1="45.3531" y1="31.8663" x2="34.5215" y2="57.248" gradientUnits="userSpaceOnUse">
<stop stop-color="white"/>
<stop offset="1" stop-color="white" stop-opacity="0"/>
</linearGradient>
</defs>
</svg>
