<svg width="86" height="219" viewBox="0 0 86 219" fill="none" xmlns="http://www.w3.org/2000/svg">
<g filter="url(#filter0_bd_74_655)">
<rect x="15" y="8" width="56" height="56" rx="28" fill="#848484" fill-opacity="0.3" shape-rendering="crispEdges"/>
<rect x="16" y="9" width="54" height="54" rx="27" stroke="url(#paint0_linear_74_655)" stroke-opacity="0.7" stroke-width="2" shape-rendering="crispEdges"/>
</g>
<path opacity="0.6" d="M42.3188 30.5078C40.6596 29.0262 38.3509 28.6161 36.4225 29.3675C34.433 30.1427 33 32.0873 33 34.9599C33 37.9569 34.9144 40.6013 36.8616 42.5417C38.8417 44.515 41.0489 45.9513 42.006 46.5345C42.6206 46.9091 43.3794 46.9091 43.994 46.5345C44.9511 45.9513 47.1583 44.515 49.1384 42.5417C51.0856 40.6012 53 37.9569 53 34.9599C53 32.0873 51.567 30.1427 49.5775 29.3675C47.6491 28.6161 45.3404 29.0262 43.6812 30.5078C43.593 30.5865 43.353 30.6939 43 30.6939C42.647 30.6939 42.407 30.5865 42.3188 30.5078Z" stroke="url(#paint1_linear_74_655)" stroke-width="2" stroke-linecap="round" stroke-linejoin="round"/>
<g filter="url(#filter1_bd_74_655)">
<rect x="15" y="76" width="56" height="56" rx="28" fill="#848484" fill-opacity="0.3" shape-rendering="crispEdges"/>
<rect x="16" y="77" width="54" height="54" rx="27" stroke="url(#paint2_linear_74_655)" stroke-opacity="0.7" stroke-width="2" shape-rendering="crispEdges"/>
</g>
<path opacity="0.6" d="M33.6156 101.473L33.4978 100.48L33.4978 100.48L33.6156 101.473ZM33.335 102.337L34.0139 101.603L34.0139 101.603L33.335 102.337ZM37.7737 106.442L37.0947 107.176L37.0947 107.176L37.7737 106.442ZM37.9244 106.906L38.9052 107.101L38.9052 107.101L37.9244 106.906ZM36.7461 112.836L35.7653 112.641L35.7653 112.641L36.7461 112.836ZM37.4811 113.37L36.9927 112.497L36.9926 112.497L37.4811 113.37ZM42.757 110.417L43.2454 111.289L43.2454 111.289L42.757 110.417ZM43.2453 110.417L42.7568 111.289H42.7568L43.2453 110.417ZM48.5206 113.37L49.0091 112.497H49.0091L48.5206 113.37ZM49.2551 112.836L48.2743 113.031L48.2743 113.031L49.2551 112.836ZM48.0771 106.906L49.058 106.711L49.058 106.711L48.0771 106.906ZM48.2279 106.442L48.9069 107.176L48.9069 107.176L48.2279 106.442ZM52.6662 102.337L51.9873 101.603L51.9873 101.603L52.6662 102.337ZM52.3857 101.473L52.5035 100.48L52.5035 100.48L52.3857 101.473ZM46.3818 100.761L46.2641 101.755L46.2641 101.755L46.3818 100.761ZM45.9873 100.474L45.0792 100.893L45.0792 100.893L45.9873 100.474ZM43.4551 94.9844L44.3631 94.5656L44.3631 94.5656L43.4551 94.9844ZM42.5469 94.9844L41.6388 94.5656V94.5656L42.5469 94.9844ZM40.0146 100.474L40.9227 100.893L40.0146 100.474ZM39.6191 100.761L39.7369 101.755L39.7369 101.755L39.6191 100.761ZM33.4978 100.48C32.2267 100.631 31.7163 102.202 32.656 103.071L34.0139 101.603C34.3272 101.892 34.157 102.416 33.7333 102.466L33.4978 100.48ZM32.656 103.071L37.0947 107.176L38.4526 105.708L34.0139 101.603L32.656 103.071ZM37.0947 107.176C36.9664 107.057 36.9098 106.881 36.9435 106.711L38.9052 107.101C39.0067 106.59 38.8363 106.062 38.4526 105.708L37.0947 107.176ZM36.9435 106.711L35.7653 112.641L37.7269 113.031L38.9052 107.101L36.9435 106.711ZM35.7653 112.641C35.5156 113.898 36.8535 114.867 37.9695 114.242L36.9926 112.497C37.364 112.289 37.8103 112.611 37.7269 113.031L35.7653 112.641ZM37.9695 114.242L43.2454 111.289L42.2685 109.544L36.9927 112.497L37.9695 114.242ZM43.2454 111.289C43.0933 111.375 42.9082 111.374 42.7568 111.289L43.7337 109.544C43.2789 109.29 42.7241 109.289 42.2685 109.544L43.2454 111.289ZM42.7568 111.289L48.0322 114.242L49.0091 112.497L43.7337 109.544L42.7568 111.289ZM48.0322 114.242C49.1493 114.868 50.4854 113.896 50.236 112.641L48.2743 113.031C48.1912 112.613 48.6366 112.289 49.0091 112.497L48.0322 114.242ZM50.236 112.641L49.058 106.711L47.0963 107.101L48.2743 113.031L50.236 112.641ZM49.058 106.711C49.0917 106.881 49.0351 107.057 48.9069 107.176L47.549 105.707C47.1654 106.062 46.9948 106.59 47.0963 107.101L49.058 106.711ZM48.9069 107.176L53.3452 103.071L51.9873 101.603L47.5489 105.708L48.9069 107.176ZM53.3452 103.071C54.2846 102.202 53.775 100.631 52.5035 100.48L52.268 102.466C51.8438 102.416 51.6744 101.892 51.9873 101.603L53.3452 103.071ZM52.5035 100.48L46.4996 99.7685L46.2641 101.755L52.268 102.466L52.5035 100.48ZM46.4996 99.7685C46.674 99.7891 46.8232 99.8992 46.8954 100.056L45.0792 100.893C45.297 101.365 45.7444 101.693 46.2641 101.755L46.4996 99.7685ZM46.8954 100.056L44.3631 94.5656L42.547 95.4032L45.0792 100.893L46.8954 100.056ZM44.3631 94.5656C43.8269 93.403 42.1748 93.4035 41.6388 94.5656L43.4549 95.4033C43.2763 95.7905 42.7258 95.7909 42.547 95.4032L44.3631 94.5656ZM41.6388 94.5656L39.1066 100.055L40.9227 100.893L43.4549 95.4033L41.6388 94.5656ZM39.1066 100.055C39.1797 99.897 39.3294 99.7888 39.5014 99.7684L39.7369 101.755C40.2543 101.693 40.7039 101.367 40.9227 100.893L39.1066 100.055ZM39.5014 99.7684L33.4978 100.48L33.7333 102.466L39.7369 101.755L39.5014 99.7684Z" fill="url(#paint3_linear_74_655)"/>
<g filter="url(#filter2_bd_74_655)">
<rect x="15" y="144" width="56" height="56" rx="28" fill="#848484" fill-opacity="0.3" shape-rendering="crispEdges"/>
<rect x="16" y="145" width="54" height="54" rx="27" stroke="url(#paint4_linear_74_655)" stroke-opacity="0.7" stroke-width="2" shape-rendering="crispEdges"/>
</g>
<path opacity="0.6" d="M40.6005 172.985C40.21 173.376 40.21 174.009 40.6005 174.399C40.991 174.79 41.6242 174.79 42.0147 174.399L40.6005 172.985ZM46.8609 169.553C47.2514 169.163 47.2514 168.529 46.8609 168.139C46.4703 167.748 45.8372 167.748 45.4467 168.139L46.8609 169.553ZM51.1111 165.889L52.0669 166.183L51.1111 165.889ZM47.0205 179.183L47.9763 179.477L47.0205 179.183ZM44.0602 179.428L43.1658 179.875L44.0602 179.428ZM41.4692 174.246L40.5748 174.693L41.4692 174.246ZM40.7537 173.531L40.3065 174.425L40.7537 173.531ZM35.5718 170.94L36.019 170.045L35.5718 170.94ZM35.8169 167.979L35.5228 167.024L35.8169 167.979ZM49.1115 163.889L49.4056 164.845L49.1115 163.889ZM33.7559 169.759L34.6795 169.376L33.7559 169.759ZM33.8315 168.846L32.9835 168.316L33.8315 168.846ZM41.2773 173.904L40.4853 174.515H40.4853L41.2773 173.904ZM41.0961 173.722L40.4856 174.515L41.0961 173.722ZM46.1543 181.168L45.6244 180.32L46.1543 181.168ZM45.2414 181.244L45.6247 180.32L45.2414 181.244ZM51.4276 164.167L52.3663 163.822L51.4276 164.167ZM50.8332 163.573L50.4886 164.511L50.8332 163.573ZM42.0147 174.399L46.8609 169.553L45.4467 168.139L40.6005 172.985L42.0147 174.399ZM50.1554 165.594L46.0647 178.889L47.9763 179.477L52.0669 166.183L50.1554 165.594ZM44.9546 178.981L42.3637 173.799L40.5748 174.693L43.1658 179.875L44.9546 178.981ZM41.2009 172.636L36.019 170.045L35.1246 171.834L40.3065 174.425L41.2009 172.636ZM36.111 168.935L49.4056 164.845L48.8174 162.933L35.5228 167.024L36.111 168.935ZM36.019 170.045C35.4437 169.758 35.0732 169.571 34.823 169.417C34.5414 169.244 34.619 169.23 34.6795 169.376L32.8322 170.142C33.0356 170.632 33.4635 170.929 33.7754 171.121C34.1186 171.332 34.5846 171.564 35.1246 171.834L36.019 170.045ZM35.5228 167.024C34.9458 167.201 34.448 167.353 34.0747 167.505C33.7356 167.643 33.2646 167.866 32.9835 168.316L34.6796 169.376C34.596 169.509 34.5219 169.482 34.828 169.358C35.1001 169.247 35.4962 169.124 36.111 168.935L35.5228 167.024ZM34.6795 169.376L34.6796 169.376L32.9835 168.316C32.6409 168.864 32.5842 169.545 32.8322 170.142L34.6795 169.376ZM42.3637 173.799C42.292 173.656 42.2012 173.465 42.0694 173.294L40.4853 174.515C40.4728 174.498 40.4708 174.492 40.4855 174.518C40.5038 174.552 40.5274 174.599 40.5748 174.693L42.3637 173.799ZM40.3065 174.425C40.4016 174.473 40.4485 174.496 40.4822 174.515C40.5091 174.529 40.5023 174.527 40.4856 174.515L41.7066 172.93C41.5353 172.798 41.343 172.707 41.2009 172.636L40.3065 174.425ZM42.0694 173.294C41.9654 173.159 41.844 173.036 41.7066 172.93L40.4856 174.515L40.4853 174.515L42.0694 173.294ZM46.0647 178.889C45.8756 179.504 45.7527 179.9 45.6421 180.172C45.5177 180.478 45.4907 180.404 45.6244 180.32L46.6842 182.016C47.1342 181.735 47.3569 181.264 47.4948 180.925C47.6466 180.552 47.7987 180.054 47.9763 179.477L46.0647 178.889ZM43.1658 179.875C43.4358 180.415 43.6679 180.881 43.8791 181.225C44.0711 181.537 44.3683 181.964 44.8582 182.168L45.6247 180.32C45.7702 180.381 45.7556 180.458 45.5825 180.177C45.4286 179.927 45.2422 179.556 44.9546 178.981L43.1658 179.875ZM45.6244 180.32L45.6247 180.32L44.8582 182.168C45.4556 182.416 46.1357 182.359 46.6842 182.016L45.6244 180.32ZM52.0669 166.183C52.2052 165.733 52.3304 165.33 52.3996 165.001C52.4666 164.682 52.5249 164.254 52.3663 163.822L50.4888 164.511C50.4465 164.396 50.4906 164.36 50.4425 164.589C50.3965 164.807 50.3054 165.107 50.1554 165.594L52.0669 166.183ZM49.4056 164.845C49.8931 164.695 50.1925 164.603 50.4108 164.558C50.6397 164.509 50.6039 164.554 50.4886 164.511L51.1779 162.634C50.7461 162.475 50.3179 162.533 49.9993 162.6C49.67 162.67 49.2668 162.795 48.8174 162.933L49.4056 164.845ZM52.3663 163.822C52.1638 163.27 51.7288 162.836 51.1779 162.634L50.4886 164.511L50.4888 164.511L52.3663 163.822Z" fill="url(#paint5_linear_74_655)"/>
<defs>
<filter id="filter0_bd_74_655" x="3" y="0" width="80" height="80" filterUnits="userSpaceOnUse" color-interpolation-filters="sRGB">
<feFlood flood-opacity="0" result="BackgroundImageFix"/>
<feGaussianBlur in="BackgroundImageFix" stdDeviation="4"/>
<feComposite in2="SourceAlpha" operator="in" result="effect1_backgroundBlur_74_655"/>
<feColorMatrix in="SourceAlpha" type="matrix" values="0 0 0 0 0 0 0 0 0 0 0 0 0 0 0 0 0 0 127 0" result="hardAlpha"/>
<feMorphology radius="2" operator="dilate" in="SourceAlpha" result="effect2_dropShadow_74_655"/>
<feOffset dy="4"/>
<feGaussianBlur stdDeviation="5"/>
<feComposite in2="hardAlpha" operator="out"/>
<feColorMatrix type="matrix" values="0 0 0 0 0 0 0 0 0 0 0 0 0 0 0 0 0 0 0.1 0"/>
<feBlend mode="normal" in2="effect1_backgroundBlur_74_655" result="effect2_dropShadow_74_655"/>
<feBlend mode="normal" in="SourceGraphic" in2="effect2_dropShadow_74_655" result="shape"/>
</filter>
<filter id="filter1_bd_74_655" x="3" y="68" width="80" height="80" filterUnits="userSpaceOnUse" color-interpolation-filters="sRGB">
<feFlood flood-opacity="0" result="BackgroundImageFix"/>
<feGaussianBlur in="BackgroundImageFix" stdDeviation="4"/>
<feComposite in2="SourceAlpha" operator="in" result="effect1_backgroundBlur_74_655"/>
<feColorMatrix in="SourceAlpha" type="matrix" values="0 0 0 0 0 0 0 0 0 0 0 0 0 0 0 0 0 0 127 0" result="hardAlpha"/>
<feMorphology radius="2" operator="dilate" in="SourceAlpha" result="effect2_dropShadow_74_655"/>
<feOffset dy="4"/>
<feGaussianBlur stdDeviation="5"/>
<feComposite in2="hardAlpha" operator="out"/>
<feColorMatrix type="matrix" values="0 0 0 0 0 0 0 0 0 0 0 0 0 0 0 0 0 0 0.1 0"/>
<feBlend mode="normal" in2="effect1_backgroundBlur_74_655" result="effect2_dropShadow_74_655"/>
<feBlend mode="normal" in="SourceGraphic" in2="effect2_dropShadow_74_655" result="shape"/>
</filter>
<filter id="filter2_bd_74_655" x="0" y="133" width="86" height="86" filterUnits="userSpaceOnUse" color-interpolation-filters="sRGB">
<feFlood flood-opacity="0" result="BackgroundImageFix"/>
<feGaussianBlur in="BackgroundImageFix" stdDeviation="4"/>
<feComposite in2="SourceAlpha" operator="in" result="effect1_backgroundBlur_74_655"/>
<feColorMatrix in="SourceAlpha" type="matrix" values="0 0 0 0 0 0 0 0 0 0 0 0 0 0 0 0 0 0 127 0" result="hardAlpha"/>
<feMorphology radius="3" operator="dilate" in="SourceAlpha" result="effect2_dropShadow_74_655"/>
<feOffset dy="4"/>
<feGaussianBlur stdDeviation="6"/>
<feComposite in2="hardAlpha" operator="out"/>
<feColorMatrix type="matrix" values="0 0 0 0 0 0 0 0 0 0 0 0 0 0 0 0 0 0 0.1 0"/>
<feBlend mode="normal" in2="effect1_backgroundBlur_74_655" result="effect2_dropShadow_74_655"/>
<feBlend mode="normal" in="SourceGraphic" in2="effect2_dropShadow_74_655" result="shape"/>
</filter>
<linearGradient id="paint0_linear_74_655" x1="71" y1="-4.2807" x2="15" y2="76.7719" gradientUnits="userSpaceOnUse">
<stop stop-color="white"/>
<stop offset="1" stop-color="white" stop-opacity="0"/>
</linearGradient>
<linearGradient id="paint1_linear_74_655" x1="50" y1="27" x2="39.4836" y2="68.3056" gradientUnits="userSpaceOnUse">
<stop stop-color="white"/>
<stop offset="1" stop-color="white" stop-opacity="0"/>
</linearGradient>
<linearGradient id="paint2_linear_74_655" x1="71" y1="63.7193" x2="15" y2="144.772" gradientUnits="userSpaceOnUse">
<stop stop-color="white"/>
<stop offset="1" stop-color="white" stop-opacity="0"/>
</linearGradient>
<linearGradient id="paint3_linear_74_655" x1="46.0715" y1="96.0994" x2="35.0352" y2="123.22" gradientUnits="userSpaceOnUse">
<stop stop-color="white"/>
<stop offset="1" stop-color="white" stop-opacity="0"/>
</linearGradient>
<linearGradient id="paint4_linear_74_655" x1="43" y1="144" x2="43" y2="200" gradientUnits="userSpaceOnUse">
<stop stop-color="white"/>
<stop offset="1" stop-color="white" stop-opacity="0"/>
</linearGradient>
<linearGradient id="paint5_linear_74_655" x1="45.3531" y1="164.866" x2="34.5215" y2="190.248" gradientUnits="userSpaceOnUse">
<stop stop-color="white"/>
<stop offset="1" stop-color="white" stop-opacity="0"/>
</linearGradient>
</defs>
</svg>
