<svg width="80" height="80" viewBox="0 0 80 80" fill="none" xmlns="http://www.w3.org/2000/svg">
<g filter="url(#filter0_bd_74_659)">
<rect x="12" y="8" width="56" height="56" rx="28" fill="#848484" fill-opacity="0.3" shape-rendering="crispEdges"/>
<rect x="13" y="9" width="54" height="54" rx="27" stroke="url(#paint0_linear_74_659)" stroke-opacity="0.7" stroke-width="2" shape-rendering="crispEdges"/>
</g>
<path opacity="0.6" d="M30.6156 33.4733L30.4978 32.4802L30.4978 32.4802L30.6156 33.4733ZM30.335 34.3369L31.0139 33.6027L31.0139 33.6027L30.335 34.3369ZM34.7737 38.4417L34.0947 39.1759L34.0947 39.1759L34.7737 38.4417ZM34.9244 38.9062L35.9052 39.1011L35.9052 39.1011L34.9244 38.9062ZM33.7461 44.8361L32.7653 44.6412L32.7653 44.6412L33.7461 44.8361ZM34.4811 45.3698L33.9927 44.4972L33.9926 44.4972L34.4811 45.3698ZM39.757 42.4168L40.2454 43.2894L40.2454 43.2894L39.757 42.4168ZM40.2453 42.4169L39.7568 43.2895H39.7568L40.2453 42.4169ZM45.5206 45.3698L46.0091 44.4972H46.0091L45.5206 45.3698ZM46.2551 44.8361L45.2743 45.0309L45.2743 45.031L46.2551 44.8361ZM45.0771 38.9063L46.058 38.7114L46.058 38.7114L45.0771 38.9063ZM45.2279 38.4417L45.9069 39.1759L45.9069 39.1758L45.2279 38.4417ZM49.6662 34.3369L48.9873 33.6028L48.9873 33.6028L49.6662 34.3369ZM49.3857 33.4733L49.5035 32.4802L49.5035 32.4802L49.3857 33.4733ZM43.3818 32.7615L43.2641 33.7545L43.2641 33.7545L43.3818 32.7615ZM42.9873 32.4744L42.0792 32.8932L42.0792 32.8932L42.9873 32.4744ZM40.4551 26.9844L41.3631 26.5656L41.3631 26.5656L40.4551 26.9844ZM39.5469 26.9844L38.6388 26.5656V26.5656L39.5469 26.9844ZM37.0146 32.4743L37.9227 32.8932L37.0146 32.4743ZM36.6191 32.7615L36.7369 33.7545L36.7369 33.7545L36.6191 32.7615ZM30.4978 32.4802C29.2267 32.631 28.7163 34.202 29.656 35.0711L31.0139 33.6027C31.3272 33.8924 31.157 34.4161 30.7333 34.4663L30.4978 32.4802ZM29.656 35.0711L34.0947 39.1759L35.4526 37.7075L31.0139 33.6027L29.656 35.0711ZM34.0947 39.1759C33.9664 39.0572 33.9098 38.881 33.9435 38.7113L35.9052 39.1011C36.0067 38.5903 35.8363 38.0624 35.4526 37.7075L34.0947 39.1759ZM33.9435 38.7113L32.7653 44.6412L34.7269 45.031L35.9052 39.1011L33.9435 38.7113ZM32.7653 44.6412C32.5156 45.8977 33.8535 46.8671 34.9695 46.2424L33.9926 44.4972C34.364 44.2894 34.8103 44.6115 34.7269 45.031L32.7653 44.6412ZM34.9695 46.2424L40.2454 43.2894L39.2685 41.5442L33.9927 44.4972L34.9695 46.2424ZM40.2454 43.2894C40.0933 43.3745 39.9082 43.3742 39.7568 43.2895L40.7337 41.5443C40.2789 41.2897 39.7241 41.2891 39.2685 41.5442L40.2454 43.2894ZM39.7568 43.2895L45.0322 46.2424L46.0091 44.4972L40.7337 41.5443L39.7568 43.2895ZM45.0322 46.2424C46.1493 46.8677 47.4854 45.8965 47.236 44.6412L45.2743 45.031C45.1912 44.6127 45.6366 44.2887 46.0091 44.4972L45.0322 46.2424ZM47.236 44.6412L46.058 38.7114L44.0963 39.1011L45.2743 45.0309L47.236 44.6412ZM46.058 38.7114C46.0917 38.8811 46.0351 39.0572 45.9069 39.1759L44.549 37.7075C44.1654 38.0622 43.9948 38.5903 44.0963 39.1012L46.058 38.7114ZM45.9069 39.1758L50.3452 35.0711L48.9873 33.6028L44.5489 37.7075L45.9069 39.1758ZM50.3452 35.0711C51.2846 34.2024 50.775 32.631 49.5035 32.4802L49.268 34.4663C48.8438 34.416 48.6744 33.8921 48.9873 33.6028L50.3452 35.0711ZM49.5035 32.4802L43.4996 31.7685L43.2641 33.7545L49.268 34.4663L49.5035 32.4802ZM43.4996 31.7685C43.674 31.7891 43.8232 31.8992 43.8954 32.0555L42.0792 32.8932C42.297 33.3654 42.7444 33.6929 43.2641 33.7545L43.4996 31.7685ZM43.8954 32.0556L41.3631 26.5656L39.547 27.4032L42.0792 32.8932L43.8954 32.0556ZM41.3631 26.5656C40.8269 25.403 39.1748 25.4035 38.6388 26.5656L40.4549 27.4033C40.2763 27.7905 39.7258 27.7909 39.547 27.4032L41.3631 26.5656ZM38.6388 26.5656L36.1066 32.0555L37.9227 32.8932L40.4549 27.4033L38.6388 26.5656ZM36.1066 32.0555C36.1797 31.897 36.3294 31.7888 36.5014 31.7684L36.7369 33.7545C37.2543 33.6932 37.7039 33.3675 37.9227 32.8932L36.1066 32.0555ZM36.5014 31.7684L30.4978 32.4802L30.7333 34.4663L36.7369 33.7545L36.5014 31.7684Z" fill="url(#paint1_linear_74_659)"/>
<defs>
<filter id="filter0_bd_74_659" x="0" y="0" width="80" height="80" filterUnits="userSpaceOnUse" color-interpolation-filters="sRGB">
<feFlood flood-opacity="0" result="BackgroundImageFix"/>
<feGaussianBlur in="BackgroundImageFix" stdDeviation="4"/>
<feComposite in2="SourceAlpha" operator="in" result="effect1_backgroundBlur_74_659"/>
<feColorMatrix in="SourceAlpha" type="matrix" values="0 0 0 0 0 0 0 0 0 0 0 0 0 0 0 0 0 0 127 0" result="hardAlpha"/>
<feMorphology radius="2" operator="dilate" in="SourceAlpha" result="effect2_dropShadow_74_659"/>
<feOffset dy="4"/>
<feGaussianBlur stdDeviation="5"/>
<feComposite in2="hardAlpha" operator="out"/>
<feColorMatrix type="matrix" values="0 0 0 0 0 0 0 0 0 0 0 0 0 0 0 0 0 0 0.1 0"/>
<feBlend mode="normal" in2="effect1_backgroundBlur_74_659" result="effect2_dropShadow_74_659"/>
<feBlend mode="normal" in="SourceGraphic" in2="effect2_dropShadow_74_659" result="shape"/>
</filter>
<linearGradient id="paint0_linear_74_659" x1="68" y1="-4.2807" x2="12" y2="76.7719" gradientUnits="userSpaceOnUse">
<stop stop-color="white"/>
<stop offset="1" stop-color="white" stop-opacity="0"/>
</linearGradient>
<linearGradient id="paint1_linear_74_659" x1="43.0715" y1="28.0994" x2="32.0352" y2="55.2196" gradientUnits="userSpaceOnUse">
<stop stop-color="white"/>
<stop offset="1" stop-color="white" stop-opacity="0"/>
</linearGradient>
</defs>
</svg>
