<svg width="20" height="20" viewBox="0 0 20 20" fill="none" xmlns="http://www.w3.org/2000/svg">
<path d="M16.5834 17.5C16.5834 13.8641 13.6359 10.9167 10 10.9167V12.4167C12.8075 12.4167 15.0834 14.6926 15.0834 17.5H16.5834ZM10 10.9167C6.36415 10.9167 3.41669 13.8641 3.41669 17.5H4.91669C4.91669 14.6926 7.19257 12.4167 10 12.4167V10.9167ZM10 8.41667C8.57328 8.41667 7.41669 7.26007 7.41669 5.83333H5.91669C5.91669 8.0885 7.74486 9.91667 10 9.91667V8.41667ZM7.41669 5.83333C7.41669 4.4066 8.57328 3.25 10 3.25V1.75C7.74486 1.75 5.91669 3.57817 5.91669 5.83333H7.41669ZM10 3.25C11.4268 3.25 12.5834 4.4066 12.5834 5.83333H14.0834C14.0834 3.57817 12.2552 1.75 10 1.75V3.25ZM12.5834 5.83333C12.5834 7.26007 11.4268 8.41667 10 8.41667V9.91667C12.2552 9.91667 14.0834 8.0885 14.0834 5.83333H12.5834Z" fill="white"/>
</svg>
